<?xml version="1.0" encoding="UTF-8"?>
<svg xmlns="http://www.w3.org/2000/svg"
     xmlns:xlink="http://www.w3.org/1999/xlink"
     xmlns:gadfly="http://www.gadflyjl.org/ns"
     version="1.2"
     width="200mm" height="130mm" viewBox="0 0 200 130"
     stroke="none"
     fill="#000000"
     stroke-width="0.3"
     font-size="3.88"
>
<g stroke="#000000" stroke-opacity="0.000" fill="#222831" id="img-fce8a3a1-1">
  <rect x="0" y="0" width="200" height="130"/>
</g>
<g class="plotroot xscalable yscalable" id="img-fce8a3a1-2">
  <g font-size="3.88" font-family="'PT Sans','Helvetica Neue','Helvetica',sans-serif" fill="#A1A1A1" stroke="#000000" stroke-opacity="0.000" id="img-fce8a3a1-3">
    <text x="105.94" y="118.51" text-anchor="middle" dy="0.6em">Independent</text>
  </g>
  <g class="guide xlabels" font-size="2.82" font-family="'PT Sans Caption','Helvetica Neue','Helvetica',sans-serif" fill="#A1A1A1" id="img-fce8a3a1-4">
    <text x="18.89" y="112.46" text-anchor="middle" dy="0.6em">-1.0</text>
    <text x="62.41" y="112.46" text-anchor="middle" dy="0.6em">-0.5</text>
    <text x="105.94" y="112.46" text-anchor="middle" dy="0.6em">0.0</text>
    <text x="149.47" y="112.46" text-anchor="middle" dy="0.6em">0.5</text>
    <text x="193" y="112.46" text-anchor="middle" dy="0.6em">1.0</text>
  </g>
<g clip-path="url(#img-fce8a3a1-5)">
  <g id="img-fce8a3a1-6">
    <g pointer-events="visible" opacity="1" fill="#222831" stroke="#000000" stroke-opacity="0.000" class="guide background" id="img-fce8a3a1-7">
      <rect x="16.89" y="5" width="178.11" height="106.46"/>
    </g>
    <g class="guide ygridlines xfixed" stroke-dasharray="0.5,0.5" stroke-width="0.2" stroke="#575757" id="img-fce8a3a1-8">
      <path fill="none" d="M16.89,109.46 L 195 109.46"/>
      <path fill="none" d="M16.89,75.31 L 195 75.31"/>
      <path fill="none" d="M16.89,41.15 L 195 41.15"/>
      <path fill="none" d="M16.89,7 L 195 7"/>
    </g>
    <g class="guide xgridlines yfixed" stroke-dasharray="0.5,0.5" stroke-width="0.2" stroke="#575757" id="img-fce8a3a1-9">
      <path fill="none" d="M18.89,5 L 18.89 111.46"/>
      <path fill="none" d="M62.41,5 L 62.41 111.46"/>
      <path fill="none" d="M105.94,5 L 105.94 111.46"/>
      <path fill="none" d="M149.47,5 L 149.47 111.46"/>
      <path fill="none" d="M193,5 L 193 111.46"/>
    </g>
    <g class="plotpanel" id="img-fce8a3a1-10">
      <g class="geometry" id="img-fce8a3a1-11">
        <g class="color_RGBA{Float32}(0.9960785f0,0.2627451f0,0.39607847f0,1.0f0)" stroke="#B58486" stroke-width="0.3" fill="#FE4365" id="img-fce8a3a1-12">
          <use xlink:href="#img-fce8a3a1-13" x="152.68" y="86.11"/>
          <use xlink:href="#img-fce8a3a1-13" x="182.64" y="93.19"/>
          <use xlink:href="#img-fce8a3a1-13" x="136.23" y="68.21"/>
          <use xlink:href="#img-fce8a3a1-13" x="87.74" y="62.21"/>
          <use xlink:href="#img-fce8a3a1-13" x="73.43" y="57.72"/>
          <use xlink:href="#img-fce8a3a1-13" x="134.25" y="87.29"/>
          <use xlink:href="#img-fce8a3a1-13" x="120.92" y="76.07"/>
          <use xlink:href="#img-fce8a3a1-13" x="27.97" y="42.15"/>
          <use xlink:href="#img-fce8a3a1-13" x="65.66" y="50.33"/>
          <use xlink:href="#img-fce8a3a1-13" x="37.84" y="53.84"/>
          <use xlink:href="#img-fce8a3a1-13" x="47.38" y="53.73"/>
          <use xlink:href="#img-fce8a3a1-13" x="101.24" y="69.55"/>
          <use xlink:href="#img-fce8a3a1-13" x="169.56" y="88.92"/>
          <use xlink:href="#img-fce8a3a1-13" x="126.4" y="70.11"/>
          <use xlink:href="#img-fce8a3a1-13" x="68.63" y="58.84"/>
          <use xlink:href="#img-fce8a3a1-13" x="99.65" y="69.54"/>
          <use xlink:href="#img-fce8a3a1-13" x="66.91" y="66.82"/>
          <use xlink:href="#img-fce8a3a1-13" x="96.64" y="64.64"/>
          <use xlink:href="#img-fce8a3a1-13" x="120.27" y="62.65"/>
          <use xlink:href="#img-fce8a3a1-13" x="63.46" y="45.54"/>
          <use xlink:href="#img-fce8a3a1-13" x="141.78" y="86.7"/>
          <use xlink:href="#img-fce8a3a1-13" x="69.73" y="52.13"/>
          <use xlink:href="#img-fce8a3a1-13" x="67.82" y="54.04"/>
          <use xlink:href="#img-fce8a3a1-13" x="156.95" y="79.28"/>
          <use xlink:href="#img-fce8a3a1-13" x="55.32" y="43.56"/>
          <use xlink:href="#img-fce8a3a1-13" x="178.75" y="95.87"/>
          <use xlink:href="#img-fce8a3a1-13" x="125.84" y="69.82"/>
          <use xlink:href="#img-fce8a3a1-13" x="158.64" y="88.63"/>
          <use xlink:href="#img-fce8a3a1-13" x="115.63" y="60.69"/>
          <use xlink:href="#img-fce8a3a1-13" x="182.69" y="80.24"/>
          <use xlink:href="#img-fce8a3a1-13" x="102.46" y="72.83"/>
          <use xlink:href="#img-fce8a3a1-13" x="156.47" y="87.71"/>
          <use xlink:href="#img-fce8a3a1-13" x="80.91" y="56.97"/>
          <use xlink:href="#img-fce8a3a1-13" x="175.75" y="88.99"/>
          <use xlink:href="#img-fce8a3a1-13" x="111.04" y="71.6"/>
          <use xlink:href="#img-fce8a3a1-13" x="24.43" y="32.37"/>
          <use xlink:href="#img-fce8a3a1-13" x="175.71" y="96.44"/>
          <use xlink:href="#img-fce8a3a1-13" x="182.61" y="95.32"/>
          <use xlink:href="#img-fce8a3a1-13" x="127.08" y="80.72"/>
          <use xlink:href="#img-fce8a3a1-13" x="79.5" y="57.71"/>
          <use xlink:href="#img-fce8a3a1-13" x="118.24" y="72.99"/>
          <use xlink:href="#img-fce8a3a1-13" x="54.41" y="46.62"/>
          <use xlink:href="#img-fce8a3a1-13" x="84.18" y="59.67"/>
          <use xlink:href="#img-fce8a3a1-13" x="151.17" y="85.6"/>
          <use xlink:href="#img-fce8a3a1-13" x="52.28" y="56.13"/>
          <use xlink:href="#img-fce8a3a1-13" x="59.72" y="44.84"/>
          <use xlink:href="#img-fce8a3a1-13" x="35.89" y="34.64"/>
          <use xlink:href="#img-fce8a3a1-13" x="128.07" y="85.85"/>
          <use xlink:href="#img-fce8a3a1-13" x="183.72" y="98.42"/>
          <use xlink:href="#img-fce8a3a1-13" x="114.11" y="68.94"/>
          <use xlink:href="#img-fce8a3a1-13" x="40.23" y="45.43"/>
          <use xlink:href="#img-fce8a3a1-13" x="38.1" y="46.36"/>
          <use xlink:href="#img-fce8a3a1-13" x="108.5" y="88.01"/>
          <use xlink:href="#img-fce8a3a1-13" x="128.26" y="81.49"/>
          <use xlink:href="#img-fce8a3a1-13" x="24.72" y="45.46"/>
          <use xlink:href="#img-fce8a3a1-13" x="142.13" y="90.99"/>
          <use xlink:href="#img-fce8a3a1-13" x="71.4" y="59.83"/>
          <use xlink:href="#img-fce8a3a1-13" x="73.01" y="65.12"/>
          <use xlink:href="#img-fce8a3a1-13" x="98.72" y="65.27"/>
          <use xlink:href="#img-fce8a3a1-13" x="100.23" y="79.28"/>
          <use xlink:href="#img-fce8a3a1-13" x="80.34" y="49.18"/>
          <use xlink:href="#img-fce8a3a1-13" x="154.32" y="81.61"/>
          <use xlink:href="#img-fce8a3a1-13" x="39.81" y="51.37"/>
          <use xlink:href="#img-fce8a3a1-13" x="32.28" y="37.22"/>
          <use xlink:href="#img-fce8a3a1-13" x="179.93" y="102.69"/>
          <use xlink:href="#img-fce8a3a1-13" x="79.64" y="77.43"/>
          <use xlink:href="#img-fce8a3a1-13" x="155.46" y="96.23"/>
          <use xlink:href="#img-fce8a3a1-13" x="166.84" y="90.87"/>
          <use xlink:href="#img-fce8a3a1-13" x="39.77" y="38.26"/>
          <use xlink:href="#img-fce8a3a1-13" x="168.65" y="82.72"/>
          <use xlink:href="#img-fce8a3a1-13" x="119.32" y="77.87"/>
          <use xlink:href="#img-fce8a3a1-13" x="49.89" y="66.72"/>
          <use xlink:href="#img-fce8a3a1-13" x="184.63" y="88.75"/>
          <use xlink:href="#img-fce8a3a1-13" x="171.78" y="85.48"/>
          <use xlink:href="#img-fce8a3a1-13" x="20.48" y="19.92"/>
          <use xlink:href="#img-fce8a3a1-13" x="122.64" y="68.3"/>
          <use xlink:href="#img-fce8a3a1-13" x="185.05" y="101.84"/>
          <use xlink:href="#img-fce8a3a1-13" x="165.48" y="101.1"/>
          <use xlink:href="#img-fce8a3a1-13" x="70.44" y="41.82"/>
          <use xlink:href="#img-fce8a3a1-13" x="167.88" y="97.65"/>
          <use xlink:href="#img-fce8a3a1-13" x="178.31" y="94.81"/>
          <use xlink:href="#img-fce8a3a1-13" x="150.73" y="80.61"/>
          <use xlink:href="#img-fce8a3a1-13" x="121.42" y="71.4"/>
          <use xlink:href="#img-fce8a3a1-13" x="82.87" y="57.43"/>
          <use xlink:href="#img-fce8a3a1-13" x="153.34" y="82.55"/>
          <use xlink:href="#img-fce8a3a1-13" x="172.44" y="86.43"/>
          <use xlink:href="#img-fce8a3a1-13" x="133.8" y="66.11"/>
          <use xlink:href="#img-fce8a3a1-13" x="161.69" y="80.92"/>
          <use xlink:href="#img-fce8a3a1-13" x="182.18" y="98.25"/>
          <use xlink:href="#img-fce8a3a1-13" x="66.67" y="58.83"/>
          <use xlink:href="#img-fce8a3a1-13" x="155.3" y="93.31"/>
          <use xlink:href="#img-fce8a3a1-13" x="130.5" y="74.4"/>
          <use xlink:href="#img-fce8a3a1-13" x="70.41" y="53.02"/>
          <use xlink:href="#img-fce8a3a1-13" x="183.05" y="103.82"/>
          <use xlink:href="#img-fce8a3a1-13" x="47.46" y="47.03"/>
          <use xlink:href="#img-fce8a3a1-13" x="163.57" y="98.01"/>
          <use xlink:href="#img-fce8a3a1-13" x="142.48" y="78.46"/>
          <use xlink:href="#img-fce8a3a1-13" x="91.87" y="68.86"/>
          <use xlink:href="#img-fce8a3a1-13" x="36.06" y="39.37"/>
          <use xlink:href="#img-fce8a3a1-13" x="82.82" y="61.51"/>
          <use xlink:href="#img-fce8a3a1-13" x="48.97" y="57.1"/>
          <use xlink:href="#img-fce8a3a1-13" x="83.26" y="57.34"/>
          <use xlink:href="#img-fce8a3a1-13" x="189.79" y="97.13"/>
          <use xlink:href="#img-fce8a3a1-13" x="189.71" y="99.63"/>
          <use xlink:href="#img-fce8a3a1-13" x="186.43" y="87.66"/>
          <use xlink:href="#img-fce8a3a1-13" x="126.08" y="76.31"/>
          <use xlink:href="#img-fce8a3a1-13" x="190.3" y="99.67"/>
          <use xlink:href="#img-fce8a3a1-13" x="153.97" y="89.61"/>
          <use xlink:href="#img-fce8a3a1-13" x="152.14" y="94.31"/>
          <use xlink:href="#img-fce8a3a1-13" x="75.07" y="45.75"/>
          <use xlink:href="#img-fce8a3a1-13" x="31.01" y="24.15"/>
          <use xlink:href="#img-fce8a3a1-13" x="63.58" y="41.43"/>
          <use xlink:href="#img-fce8a3a1-13" x="32.96" y="41.07"/>
          <use xlink:href="#img-fce8a3a1-13" x="66.9" y="64.41"/>
          <use xlink:href="#img-fce8a3a1-13" x="188.89" y="93.32"/>
          <use xlink:href="#img-fce8a3a1-13" x="99.87" y="47.96"/>
          <use xlink:href="#img-fce8a3a1-13" x="92.15" y="60.27"/>
          <use xlink:href="#img-fce8a3a1-13" x="38.68" y="34.19"/>
          <use xlink:href="#img-fce8a3a1-13" x="140.33" y="89.4"/>
          <use xlink:href="#img-fce8a3a1-13" x="90.96" y="70.68"/>
          <use xlink:href="#img-fce8a3a1-13" x="132.3" y="74.14"/>
          <use xlink:href="#img-fce8a3a1-13" x="52.39" y="45.24"/>
          <use xlink:href="#img-fce8a3a1-13" x="138.94" y="91.27"/>
          <use xlink:href="#img-fce8a3a1-13" x="21.67" y="30.07"/>
          <use xlink:href="#img-fce8a3a1-13" x="21.99" y="42.19"/>
          <use xlink:href="#img-fce8a3a1-13" x="125.16" y="77.47"/>
          <use xlink:href="#img-fce8a3a1-13" x="109.65" y="71.16"/>
          <use xlink:href="#img-fce8a3a1-13" x="159.4" y="101.7"/>
          <use xlink:href="#img-fce8a3a1-13" x="85.01" y="67.56"/>
          <use xlink:href="#img-fce8a3a1-13" x="130.16" y="66.3"/>
          <use xlink:href="#img-fce8a3a1-13" x="135.19" y="84.64"/>
          <use xlink:href="#img-fce8a3a1-13" x="67.49" y="44.09"/>
          <use xlink:href="#img-fce8a3a1-13" x="181.6" y="89.2"/>
          <use xlink:href="#img-fce8a3a1-13" x="169.17" y="90.12"/>
          <use xlink:href="#img-fce8a3a1-13" x="44.39" y="44.27"/>
          <use xlink:href="#img-fce8a3a1-13" x="124.45" y="85.34"/>
          <use xlink:href="#img-fce8a3a1-13" x="160.17" y="89.08"/>
          <use xlink:href="#img-fce8a3a1-13" x="71.09" y="61.03"/>
          <use xlink:href="#img-fce8a3a1-13" x="97.23" y="64.44"/>
          <use xlink:href="#img-fce8a3a1-13" x="46.86" y="49.68"/>
          <use xlink:href="#img-fce8a3a1-13" x="152.87" y="85.37"/>
          <use xlink:href="#img-fce8a3a1-13" x="78.72" y="63.75"/>
          <use xlink:href="#img-fce8a3a1-13" x="52.66" y="47"/>
          <use xlink:href="#img-fce8a3a1-13" x="181.77" y="100.17"/>
          <use xlink:href="#img-fce8a3a1-13" x="18.96" y="38.61"/>
          <use xlink:href="#img-fce8a3a1-13" x="186.05" y="99.69"/>
          <use xlink:href="#img-fce8a3a1-13" x="20.24" y="46.35"/>
          <use xlink:href="#img-fce8a3a1-13" x="166.09" y="99.48"/>
          <use xlink:href="#img-fce8a3a1-13" x="40.15" y="43.99"/>
          <use xlink:href="#img-fce8a3a1-13" x="92.59" y="65.26"/>
          <use xlink:href="#img-fce8a3a1-13" x="146.85" y="89.22"/>
          <use xlink:href="#img-fce8a3a1-13" x="83.89" y="61.38"/>
          <use xlink:href="#img-fce8a3a1-13" x="162.35" y="84.93"/>
          <use xlink:href="#img-fce8a3a1-13" x="23.94" y="39.7"/>
          <use xlink:href="#img-fce8a3a1-13" x="147.83" y="80.31"/>
          <use xlink:href="#img-fce8a3a1-13" x="26.65" y="41.44"/>
          <use xlink:href="#img-fce8a3a1-13" x="138.1" y="74.41"/>
          <use xlink:href="#img-fce8a3a1-13" x="188.64" y="92.55"/>
          <use xlink:href="#img-fce8a3a1-13" x="65.37" y="47.21"/>
          <use xlink:href="#img-fce8a3a1-13" x="91.36" y="66.44"/>
          <use xlink:href="#img-fce8a3a1-13" x="153" y="84.62"/>
          <use xlink:href="#img-fce8a3a1-13" x="50.31" y="45.4"/>
          <use xlink:href="#img-fce8a3a1-13" x="77.68" y="52.26"/>
          <use xlink:href="#img-fce8a3a1-13" x="183.31" y="103.14"/>
          <use xlink:href="#img-fce8a3a1-13" x="96.15" y="72.72"/>
          <use xlink:href="#img-fce8a3a1-13" x="33.31" y="50.23"/>
          <use xlink:href="#img-fce8a3a1-13" x="34.33" y="49.17"/>
          <use xlink:href="#img-fce8a3a1-13" x="169.91" y="94.34"/>
          <use xlink:href="#img-fce8a3a1-13" x="69.54" y="61.52"/>
          <use xlink:href="#img-fce8a3a1-13" x="77.99" y="65.01"/>
          <use xlink:href="#img-fce8a3a1-13" x="125.29" y="73.86"/>
          <use xlink:href="#img-fce8a3a1-13" x="147.57" y="83.79"/>
          <use xlink:href="#img-fce8a3a1-13" x="165.73" y="79.87"/>
          <use xlink:href="#img-fce8a3a1-13" x="68.2" y="53.22"/>
          <use xlink:href="#img-fce8a3a1-13" x="164.5" y="84.11"/>
          <use xlink:href="#img-fce8a3a1-13" x="48.74" y="54.13"/>
          <use xlink:href="#img-fce8a3a1-13" x="69.03" y="58.3"/>
          <use xlink:href="#img-fce8a3a1-13" x="116.38" y="67.29"/>
          <use xlink:href="#img-fce8a3a1-13" x="34.78" y="47.89"/>
          <use xlink:href="#img-fce8a3a1-13" x="188.05" y="98.89"/>
          <use xlink:href="#img-fce8a3a1-13" x="63.66" y="55.88"/>
          <use xlink:href="#img-fce8a3a1-13" x="163.91" y="87.14"/>
          <use xlink:href="#img-fce8a3a1-13" x="112.24" y="73.82"/>
          <use xlink:href="#img-fce8a3a1-13" x="109.22" y="74.32"/>
          <use xlink:href="#img-fce8a3a1-13" x="85.24" y="61.45"/>
          <use xlink:href="#img-fce8a3a1-13" x="115.39" y="69.35"/>
          <use xlink:href="#img-fce8a3a1-13" x="110.05" y="58.66"/>
          <use xlink:href="#img-fce8a3a1-13" x="74.59" y="52.7"/>
          <use xlink:href="#img-fce8a3a1-13" x="116.56" y="76.31"/>
          <use xlink:href="#img-fce8a3a1-13" x="183.89" y="98.18"/>
          <use xlink:href="#img-fce8a3a1-13" x="27.33" y="44.33"/>
          <use xlink:href="#img-fce8a3a1-13" x="142.86" y="71.45"/>
          <use xlink:href="#img-fce8a3a1-13" x="124.45" y="66.99"/>
          <use xlink:href="#img-fce8a3a1-13" x="177.63" y="84.52"/>
          <use xlink:href="#img-fce8a3a1-13" x="49.06" y="31.44"/>
          <use xlink:href="#img-fce8a3a1-13" x="45.83" y="51.24"/>
          <use xlink:href="#img-fce8a3a1-13" x="52.08" y="46.81"/>
          <use xlink:href="#img-fce8a3a1-13" x="108.47" y="64.46"/>
          <use xlink:href="#img-fce8a3a1-13" x="117.69" y="74.6"/>
          <use xlink:href="#img-fce8a3a1-13" x="73.85" y="57.45"/>
        </g>
      </g>
    </g>
  </g>
</g>
  <g class="guide ylabels" font-size="2.82" font-family="'PT Sans Caption','Helvetica Neue','Helvetica',sans-serif" fill="#A1A1A1" id="img-fce8a3a1-14">
    <text x="15.89" y="109.46" text-anchor="end" dy="0.35em">-1</text>
    <text x="15.89" y="75.31" text-anchor="end" dy="0.35em">0</text>
    <text x="15.89" y="41.15" text-anchor="end" dy="0.35em">1</text>
    <text x="15.89" y="7" text-anchor="end" dy="0.35em">2</text>
  </g>
  <g font-size="3.88" font-family="'PT Sans','Helvetica Neue','Helvetica',sans-serif" fill="#A1A1A1" stroke="#000000" stroke-opacity="0.000" id="img-fce8a3a1-15">
    <text x="8.76" y="56.23" text-anchor="middle" dy="0.35em" transform="rotate(-90, 8.76, 58.23)">Dependent</text>
  </g>
</g>
<defs>
  <clipPath id="img-fce8a3a1-5">
  <path d="M16.89,5 L 195 5 195 111.46 16.89 111.46" />
</clipPath>
  <g id="img-fce8a3a1-13">
    <circle cx="0" cy="0" r="0.9"/>
  </g>
</defs>
</svg>
